<svg width="20" height="21" viewBox="0 0 20 21" fill="none" xmlns="http://www.w3.org/2000/svg">
<path id="Vector" d="M18.4681 8.34048C15.0047 8.34048 12.197 5.5328 12.197 2.06936C12.197 1.29984 11.5729 0.675781 10.8034 0.675781H9.40984C8.64032 0.675781 8.01626 1.29984 8.01626 2.06936C8.01626 5.5328 5.20859 8.34048 1.74514 8.34048C0.975626 8.34048 0.351562 8.96454 0.351562 9.73406V11.1276C0.351562 11.8972 0.975626 12.5212 1.74514 12.5212C5.20859 12.5212 8.01626 15.3289 8.01626 18.7923C8.01626 19.5619 8.64032 20.1859 9.40984 20.1859H10.8034C11.5729 20.1859 12.197 19.5619 12.197 18.7923C12.197 15.3289 15.0047 12.5212 18.4681 12.5212C19.2376 12.5212 19.8617 11.8972 19.8617 11.1276V9.73406C19.8617 8.96454 19.2376 8.34048 18.4681 8.34048Z" fill="black"/>
</svg>
